# AST/ASF file generated using VICON BodyLanguage
# -----------------------------------------------
:version 1.10
:name VICON
:units
  mass 1.0
  length 0.45
  angle deg
:documentation
   .ast/.asf automatically generated from VICON data using
   VICON BodyBuilder and BodyLanguage model FoxedUp or BRILLIANT.MOD
:root
   order TX TY TZ RX RY RZ
   axis XYZ
   position 0 0 0  
   orientation 0 0 0 
:bonedata
  begin
     id 1 
     name lhipjoint
     direction 0.702568 -0.596508 0.388042 
     length 2.56661 
     axis 0 0 0  XYZ
  end
  begin
     id 2 
     name lfemur
     direction 0.34202 -0.939693 0  
     length 6.58374  
     axis 0 0 20  XYZ
    dof rx ry rz
    limits (-160.0 20.0)
           (-70.0 70.0)
           (-60.0 70.0)
  end
  begin
     id 3 
     name ltibia
     direction 0.34202 -0.939693 0   
     length 6.62538   
     axis 0 0 20   XYZ
    dof rx
    limits (-10.0 170.0)
  end
  begin
     id 4 
     name lfoot
     direction 0.10455 -0.287249 0.952133   
     length 2.26699   
     axis -90 7.62852e-016 20   XYZ
    dof rx rz
    limits (-45.0 90.0)
           (-70.0 20.0)
  end
  begin
     id 5 
     name ltoes
     direction 1.53572e-011 -4.22322e-011 1   
     length 1.12949   
     axis -90 7.62852e-016 20   XYZ
    dof rx
    limits (-90.0 20.0)
  end
  begin
     id 6 
     name rhipjoint
     direction -0.728055 -0.574632 0.373811   
     length 2.66432  
     axis 0 0 0  XYZ 
  end
  begin
     id 7 
     name rfemur
     direction -0.34202 -0.939693 0   
     length 6.66732   
     axis 0 0 -20   XYZ
    dof rx ry rz
    limits (-160.0 20.0)
           (-70.0 70.0)
           (-70.0 60.0)
  end
  begin
     id 8 
     name rtibia
     direction -0.34202 -0.939693 0   
     length 6.59288   
     axis 0 0 -20   XYZ
    dof rx
    limits (-10.0 170.0)
 end
 begin
     id 9 
     name rfoot
     direction -0.119193 -0.327479 0.93731   
     length 2.38061  
     axis -90 -7.62852e-016 -20   XYZ
    dof rx rz
    limits (-45.0 90.0)
           (-20.0 70.0)
  end
  begin
     id 10 
     name rtoes
     direction -1.53547e-011 -4.21827e-011 1   
     length 1.17899   
     axis -90 -7.62852e-016 -20   XYZ
    dof rx
    limits (-90.0 20.0)
  end
  begin
     id 11 
     name lowerback
     direction -0.000416114 0.999912 -0.0132284   
     length 2.12109   
     axis 0 0 0   XYZ
    dof rx ry rz
    limits (-20.0 45.0)
           (-30.0 30.0)
           (-30.0 30.0)
  end
  begin
     id 12 
     name upperback
     direction -0.00136371 0.99809 0.0617608   
     length 2.10067   
     axis 0 0 0   XYZ
    dof rx ry rz
    limits (-20.0 45.0)
           (-30.0 30.0)
           (-30.0 30.0)
  end
  begin
     id 13 
     name thorax
     direction -3.43026e-005 0.997776 0.0666515   
     length 2.10618   
     axis 0 0 0   XYZ
    dof rx ry rz
    limits (-20.0 45.0)
           (-30.0 30.0)
           (-30.0 30.0)
  end
  begin
     id 14 
     name lowerneck
     direction 0.0398646 0.998418 0.0396592   
     length 1.83817   
     axis 0 0 0   XYZ
    dof rx ry rz
    limits (-20.0 45.0)
           (-30.0 30.0)
           (-30.0 30.0)
  end
  begin
     id 15 
     name upperneck
     direction -0.0367268 0.961527 -0.272244   
     length 1.81975   
     axis 0 0 0   XYZ
    dof rx ry rz
    limits (-20.0 45.0)
           (-30.0 30.0)
           (-30.0 30.0)
  end
  begin
     id 16
     name head
     direction -0.0182665 0.99536 -0.0944669  
     length 1.86026  
     axis 0 0 0   XYZ
    dof rx ry rz
    limits (-20.0 45.0)
           (-30.0 30.0)
           (-30.0 30.0)
  end
  begin
     id 17 
     name lclavicle
     direction 0.924239 0.361045 0.124212  
     length 3.26878  
     axis 0 0 0   XYZ
    dof ry rz
    limits (-20.0 10.0)
           (0.0 20.0)
  end
  begin
     id 18 
     name lhumerus
     direction 1 -4.48968e-011 -2.56583e-027   
     length 4.58538   
     axis 180 -30 -90   XYZ
    dof rx ry rz
    limits (-60.0 90.0)
           (-90.0 90.0)
           (-90.0 90.0)
  end
  begin
     id 19
     name lradius
     direction 1 -4.4898e-011 -5.50375e-027   
     length 2.68935   
     axis 180 -30 -90   XYZ
    dof rx
    limits (-10.0 170.0)
  end
  begin
     id 20
     name lwrist
     direction 1 -4.48939e-011 -1.48955e-026   
     length 1.34468   
     axis 9.0955e-015 90 90   XYZ
    dof ry
    limits (-180.0 0.0)
 end
  begin
     id 21 
     name lhand
     direction 1 -4.48936e-011 -2.97907e-026   
     length 0.585058   
     axis 1.90115e-014 90 90   XYZ
    dof rx rz
    limits (-90.0 90.0)
           (-45.0 45.0)
  end
  begin
     id 22 
     name lfingers
     direction 1 -4.49082e-011 -5.96235e-026   
     length 0.471689   
     axis 3.80223e-014 90 90   XYZ
    dof rx
    limits (0.0 90.0)
  end
  begin
     id 23
     name lthumb
     direction 0.707107 -6.3489e-011 0.707107   
     length 0.677253   
     axis -90 45 -3.84942e-014   XYZ
    dof rx rz
    limits (-45.0 45.0)
           (-45.0 45.0)
  end
  begin
     id 24 
     name rclavicle
     direction -0.923098 0.371783 0.0983239   
     length 3.19656  
     axis 0 0 0   XYZ 
    dof ry rz
    limits (-10.0 20.0)
           (-20.0 0.0)
  end
  begin
     id 25 
     name rhumerus
     direction -1 -4.48976e-011 -2.5492e-027  
     length 4.4745   
     axis 180 30 90   XYZ
    dof rx ry rz
    limits (-90.0 60.0)
           (-90.0 90.0)
           (-90.0 90.0)
  end
  begin
     id 26 
     name rradius
     direction -1 -4.48941e-011 -4.36555e-027   
     length 2.93896   
     axis 180 30 90   XYZ
    dof rx
    limits (-10.0 170.0)
  end
  begin
     id 27 
     name rwrist
     direction -1 -4.49044e-011 -1.49032e-026   
     length 1.46948   
     axis 9.0955e-015 -90 -90   XYZ
    dof ry
    limits (-180.0 0.0)
  end
  begin
     id 28
     name rhand
     direction -1 -4.48826e-011 -2.97749e-026   
     length 0.405092   
     axis 1.90115e-014 -90 -90   XYZ
    dof rx rz
    limits (-90.0 90.0)
           (-45.0 45.0)
  end
  begin
     id 29
     name rfingers
     direction -1 -4.49209e-011 -5.96602e-026   
     length 0.326596   
     axis 3.80223e-014 -90 -90   XYZ
    dof rx
    limits (0.0 90.0)
  end
  begin
     id 30
     name rthumb
     direction -0.707107 -6.34776e-011 0.707107   
     length 0.468928   
     axis -90 -45 3.84942e-014   XYZ
    dof rx rz
    limits (-45.0 45.0)
           (-45.0 45.0)
  end
:hierarchy
  begin
    root lhipjoint rhipjoint lowerback
    lhipjoint lfemur
    lfemur ltibia
    ltibia lfoot
    lfoot ltoes
    rhipjoint rfemur
    rfemur rtibia
    rtibia rfoot
    rfoot rtoes
    lowerback upperback
    upperback thorax
    thorax lowerneck lclavicle rclavicle
    lowerneck upperneck
    upperneck head
    lclavicle lhumerus
    lhumerus lradius
    lradius lwrist
    lwrist lhand lthumb
    lhand lfingers
    rclavicle rhumerus
    rhumerus rradius
    rradius rwrist
    rwrist rhand rthumb
    rhand rfingers
  end

#!OML:ASF H:\Punching\Project 1\Capture day 1\Session 1\female.ASF
:FULLY-SPECIFIED
:DEGREES
219
root -1.07522 15.1381 4.64314 -9.65197 -16.3618 3.36351
lowerback 1.95544 -1.28618 3.85315
upperback -1.06035 -1.75826 -5.98597
thorax -2.51064 -1.01289 -8.38584
lowerneck -1.01892 11.5231 15.8006
upperneck 37.954 19.7833 -12.6294
head 17.1419 9.28169 -5.23458
rclavicle -9.74045e-015 -7.95139e-015
rhumerus 7.69214 35.6275 -73.9022
rradius 129.128
rwrist -17.309
rhand -30.9635 5.99376
rfingers 7.12502
rthumb -4.2479 -23.9436
lclavicle -9.74045e-015 -7.95139e-015
lhumerus -16.8622 -16.1003 75.6352
lradius 141.683
lwrist -2.19943
lhand -28.9412 4.05603
lfingers 7.12502
lthumb -2.29492 34.0234
rfemur -8.64837 8.9099 27.4332
rtibia 39.9328
rfoot -18.1008 -7.27607
rtoes 17.0967
lfemur -98.5664 9.3124 -23.6294
ltibia 128.979
lfoot 33.4657 -3.77382
ltoes -8.11936
220
root -1.07468 15.131 4.57306 -8.53729 -15.5681 3.14139
lowerback 1.85213 -1.30435 3.70125
upperback -1.23253 -1.78818 -5.8373
thorax -2.62608 -1.03135 -8.13459
lowerneck -1.54721 11.3592 15.6649
upperneck 37.7547 19.4049 -12.5122
head 17.0214 9.09846 -5.1905
rclavicle -1.39149e-014 2.38542e-014
rhumerus 7.94771 35.0866 -73.4109
rradius 129.305
rwrist -17.2493
rhand -31.0507 5.98161
rfingers 7.12502
rthumb -4.33212 -23.9541
lclavicle -1.39149e-014 2.38542e-014
lhumerus -16.2348 -16.4699 75.6128
lradius 141.674
lwrist -2.14912
lhand -28.8872 4.0537
lfingers 7.12502
lthumb -2.24275 34.0217
rfemur -10.3378 8.56403 27.4006
rtibia 40.4678
rfoot -18.0868 -7.58341
rtoes 17.1092
lfemur -98.2332 9.06756 -24.2217
ltibia 131.639
lfoot 33.7678 -4.74451
ltoes -9.12579
221
root -1.0755 15.1256 4.50144 -7.43832 -14.729 2.99354
lowerback 1.7394 -1.34072 3.48064
upperback -1.4055 -1.84483 -5.70122
thorax -2.739 -1.06154 -7.85645
lowerneck -2.0651 11.1937 15.5314
upperneck 37.5359 19.0291 -12.411
head 16.8949 8.91588 -5.15412
rclavicle -1.21259e-014 1.11319e-014
rhumerus 8.21834 34.562 -72.9336
rradius 129.49
rwrist -17.315
rhand -31.1493 6.05208
rfingers 7.12502
rthumb -4.42729 -23.8816
lclavicle -1.21259e-014 1.11319e-014
lhumerus -15.605 -16.8086 75.5556
lradius 141.668
lwrist -2.10596
lhand -28.8497 3.97613
lfingers 7.12502
lthumb -2.20656 33.9445
rfemur -12.0338 8.24825 27.3117
rtibia 41.0001
rfoot -18.0634 -7.94993
rtoes 17.1232
lfemur -97.5862 8.77048 -24.8043
ltibia 133.997
lfoot 34.047 -5.65346
ltoes -10.2049
222
root -1.07787 15.1223 4.42849 -6.36294 -13.848 2.9306
lowerback 1.62922 -1.39095 3.18586
upperback -1.58438 -1.92267 -5.58261
thorax -2.85994 -1.10082 -7.55375
lowerneck -2.56064 11.0214 15.3993
upperneck 37.3043 18.6482 -12.3199
head 16.7603 8.73163 -5.1252
rclavicle 1.49089e-014 4.77083e-015
rhumerus 8.47986 34.0499 -72.482
rradius 129.682
rwrist -17.4923
rhand -31.2484 6.19081
rfingers 7.12502
rthumb -4.52299 -23.7409
lclavicle 1.49089e-014 4.77083e-015
lhumerus -14.9903 -17.1289 75.4736
lradius 141.663
lwrist -2.07402
lhand -28.8151 3.8728
lfingers 7.12502
lthumb -2.17317 33.8415
rfemur -13.7279 7.9557 27.1506
rtibia 41.5294
rfoot -18.0373 -8.35855
rtoes 17.1533
lfemur -96.6144 8.41133 -25.3694
ltibia 136.024
lfoot 34.3115 -6.45122
ltoes -11.2683
223
root -1.08166 15.1209 4.35469 -5.30844 -12.9312 2.94907
lowerback 1.52479 -1.44721 2.83064
upperback -1.77434 -2.01096 -5.48301
thorax -2.99444 -1.14405 -7.23676
lowerneck -3.03791 10.8407 15.2611
upperneck 37.0821 18.2575 -12.2198
head 16.6258 8.54426 -5.09536
rclavicle -3.63776e-014 7.95139e-016
rhumerus 8.70029 33.5418 -72.0623
rradius 129.885
rwrist -17.7502
rhand -31.3172 6.32967
rfingers 7.12502
rthumb -4.58946 -23.6006
lclavicle -3.63776e-014 7.95139e-016
lhumerus -14.375 -17.4382 75.3619
lradius 141.641
lwrist -2.03012
lhand -28.7771 3.75079
lfingers 7.12502
lthumb -2.13645 33.7198
rfemur -15.4195 7.67265 26.9145
rtibia 42.056
rfoot -17.9992 -8.79034
rtoes 17.1412
lfemur -95.3442 7.99218 -25.9029
ltibia 137.711
lfoot 34.5603 -7.07879
ltoes -12.1474
224
root -1.08671 15.1213 4.28047 -4.26654 -11.9883 3.03965
lowerback 1.42075 -1.50744 2.43252
upperback -1.97527 -2.10659 -5.40354
thorax -3.1393 -1.18966 -6.91718
lowerneck -3.50444 10.654 15.1182
upperneck 36.8769 17.8589 -12.1063
head 16.4974 8.35477 -5.06222
rclavicle -4.6118e-014 -3.81667e-014
rhumerus 8.88173 33.0326 -71.6783
rradius 130.089
rwrist -18.0463
rhand -31.3564 6.47077
rfingers 7.12502
rthumb -4.62732 -23.4587
lclavicle -4.6118e-014 -3.81667e-014
lhumerus -13.7552 -17.74 75.2159
lradius 141.6
lwrist -1.96534
lhand -28.7328 3.65929
lfingers 7.12502
lthumb -2.09366 33.6288
rfemur -17.1096 7.38391 26.6086
rtibia 42.5739
rfoot -17.9507 -9.22339
rtoes 17.0984
lfemur -93.8052 7.51551 -26.3785
ltibia 139.041
lfoot 34.7939 -7.52655
ltoes -12.7598
225
root -1.09265 15.1231 4.20657 -3.2297 -11.0224 3.18366
lowerback 1.31312 -1.56847 2.02006
upperback -2.18908 -2.20452 -5.34136
thorax -3.29446 -1.23556 -6.60881
lowerneck -3.96187 10.4614 14.9655
upperneck 36.6984 17.4526 -11.9711
head 16.3787 8.16327 -5.02142
rclavicle 4.57205e-014 5.56597e-014
rhumerus 9.01223 32.5211 -71.327
rradius 130.288
rwrist -18.3284
rhand -31.3677 6.57614
rfingers 7.12502
rthumb -4.63822 -23.3531
lclavicle 4.57205e-014 5.56597e-014
lhumerus -13.1325 -18.0426 75.0429
lradius 141.534
lwrist -1.87384
lhand -28.683 3.65215
lfingers 7.12502
lthumb -2.04557 33.6221
rfemur -18.7913 7.06938 26.2493
rtibia 43.0719
rfoot -17.8991 -9.63733
rtoes 17.0409
lfemur -92.0395 6.98317 -26.7694
ltibia 140.016
lfoot 34.9888 -7.81812
ltoes -13.0853
226
root -1.09901 15.127 4.13355 -2.19104 -10.0331 3.36982
lowerback 1.18875 -1.64387 1.60302
upperback -2.40228 -2.32189 -5.29116
thorax -3.44077 -1.28973 -6.31106
lowerneck -4.4369 10.2745 14.8091
upperneck 36.538 17.0574 -11.8334
head 16.2793 7.97523 -4.97712
rclavicle 2.22639e-014 4.77083e-015
rhumerus 9.14257 32.0283 -70.9991
rradius 130.474
rwrist -18.5597
rhand -31.3655 6.65894
rfingers 7.12502
rthumb -4.63612 -23.2703
lclavicle 2.22639e-014 4.77083e-015
lhumerus -12.5182 -18.3213 74.8402
lradius 141.461
lwrist -1.76937
lhand -28.6305 3.66891
lfingers 7.12502
lthumb -1.99486 33.6393
rfemur -20.4558 6.7046 25.8467
rtibia 43.5318
rfoot -17.8467 -10.0124
rtoes 16.9936
lfemur -90.071 6.38086 -27.0491
ltibia 140.628
lfoot 35.133 -7.96605
ltoes -13.0877
